<?xml version="1.0" encoding="UTF-8"?>
<svg width="94px" height="30px" viewBox="0 0 94 30" version="1.1" xmlns="http://www.w3.org/2000/svg" xmlns:xlink="http://www.w3.org/1999/xlink">
    <!-- Generator: Sketch 55.2 (78181) - https://sketchapp.com -->
    <title>Group 2</title>
    <desc>Created with Sketch.</desc>
    <g id="Symbols" stroke="none" stroke-width="1" fill="none" fill-rule="evenodd">
        <g id="header-desktop/normal" transform="translate(-120.000000, -24.000000)">
            <g id="Group-2" transform="translate(120.000000, 24.000000)">
                <rect id="Rectangle" fill-opacity="0" fill="#D8D8D8" fill-rule="nonzero" x="0" y="0" width="93.75" height="30"></rect>
                <path d="M33.75,0 L35.4429134,0 L35.4429134,29.6062992 L33.75,29.6062992 L33.75,0 Z M41.7814961,24.8425197 C40.9940945,23.4645669 40.4822835,21.8897638 40.3641732,20.2755906 C40.2854331,19.6456693 40.3248031,19.2519685 40.4035433,9.92125984 L41.8996063,9.92125984 L41.8996063,20.511811 C42.2933071,24.6850394 46.1122047,27.992126 49.6948819,27.992126 C53.238189,27.992126 56.6240157,25.3149606 57.4507874,21.2598425 L57.4507874,9.92125984 L58.9468504,9.92125984 L58.9468504,29.6062992 L57.4507874,29.6062992 L57.4507874,25.3937008 C57.4507874,25.3937008 56.3484252,26.7322835 55.3248031,27.5590551 C53.7106299,28.8582677 51.742126,29.6062992 49.6948819,29.6062992 C46.4665354,29.6062992 43.5137795,27.8346457 41.7814961,24.8425197 Z M81.742126,29.6456693 L80.0492126,29.6456693 L80.0492126,25.7874016 L78.0019685,27.480315 C76.3090551,28.8976378 74.2224409,29.6456693 72.0177165,29.6456693 C66.7814961,29.6456693 62.5295276,25.2362205 62.5295276,19.8425197 C62.5295276,14.4094488 66.7814961,10.0393701 72.0177165,10.0393701 C74.2224409,10.0393701 76.3090551,10.7874016 78.0019685,12.2047244 L80.0492126,13.8976378 L80.0492126,10 L81.742126,10 L81.742126,29.6456693 Z M79.8523622,20.9055118 L79.8523622,18.7795276 C79.3011811,14.6456693 76.0728346,11.7716535 72.0177165,11.7716535 C67.5688976,11.7716535 64.1830709,15.2755906 64.1830709,19.8425197 C64.1830709,24.4094488 67.5688976,27.8740157 72.0177165,27.8740157 C76.0728346,27.8740157 79.3011811,25 79.8523622,20.9055118 Z M93.75,9.88188976 L93.75,11.2992126 C90.2066929,11.6141732 87.4901575,14.6850394 86.7814961,18.2677165 L86.7814961,29.6456693 L85.4429134,29.6456693 L85.4429134,9.88188976 L86.7814961,9.88188976 L86.7814961,14.488189 C86.7814961,14.488189 87.6082677,13.1102362 88.8287402,11.9685039 C90.2066929,10.7086614 91.8996063,10.0787402 93.75,9.88188976 Z M49.35,6 L72.75,6 L49.35,6 Z" id="luar" fill="#24252A"></path>
                <g id="Group" transform="translate(45.000000, 3.750000)" fill-rule="nonzero">
                    <polygon id="Path-3" fill="#0922AA" points="0.6 1.65 0.6 0.45 24.6 0.45 24.6 1.65"></polygon>
                    <polygon id="Path-3-Copy" fill="#D44879" points="18.75 1.65 18.75 0.45 22.5 0.45 22.5 1.65"></polygon>
                </g>
                <circle id="Oval-2" fill="#0922AA" fill-rule="nonzero" cx="17.5" cy="10" r="6.25"></circle>
                <circle id="Oval-2-Copy" fill="#0922AA" fill-rule="nonzero" cx="11.25" cy="23.75" r="3.75"></circle>
                <circle id="Oval-2-Copy-2" fill="#D44879" fill-rule="nonzero" cx="3.75" cy="16.25" r="3.75"></circle>
                <path d="" id="Path-4" stroke="#979797"></path>
            </g>
        </g>
    </g>
</svg>